HIERARCHY
ROOT Hips
{
	OFFSET	0.00	0.00	0.00
	CHANNELS 6 Xposition Yposition Zposition Zrotation Xrotation Yrotation
	JOINT LeftUpLeg
	{
		OFFSET	 0.126116	-0.065224	 0.014019
		CHANNELS 3 Zrotation Xrotation Yrotation
		JOINT LeftLeg
		{
			OFFSET	 0.000000	 0.569914	 0.000000
			CHANNELS 3 Zrotation Xrotation Yrotation
			JOINT LeftFoot
			{
				OFFSET	 0.000000	 0.544423	 0.000000
				CHANNELS 3 Zrotation Xrotation Yrotation
				JOINT LeftToeBase
				{
					OFFSET	 0.000000	 0.207117	 0.000000
					CHANNELS 3 Zrotation Xrotation Yrotation
					End Site
					{
						OFFSET	 0.000000	 0.207117	 0.000000
					}
				}
			}
		}
	}
	JOINT RightUpLeg
	{
		OFFSET	-0.124023	-0.065224	 0.008373
		CHANNELS 3 Zrotation Xrotation Yrotation
		JOINT RightLeg
		{
			OFFSET	 0.000000	 0.570047	 0.000000
			CHANNELS 3 Zrotation Xrotation Yrotation
			JOINT RightFoot
			{
				OFFSET	 0.000000	 0.544354	 0.000000
				CHANNELS 3 Zrotation Xrotation Yrotation
				JOINT RightToeBase
				{
					OFFSET	 0.000000	 0.207540	 0.000000
					CHANNELS 3 Zrotation Xrotation Yrotation
					End Site
					{
						OFFSET	 0.000000	 0.207540	 0.000000
					}
				}
			}
		}
	}
	JOINT Spine
	{
		OFFSET	 0.000184	 0.117403	 0.007763
		CHANNELS 3 Zrotation Xrotation Yrotation
		JOINT Spine1
		{
			OFFSET	 0.000000	 0.137269	 0.000000
			CHANNELS 3 Zrotation Xrotation Yrotation
			JOINT Spine2
			{
				OFFSET	 0.000000	 0.156879	 0.000000
				CHANNELS 3 Zrotation Xrotation Yrotation
				JOINT LeftShoulder
				{
					OFFSET	 0.080501	 0.160143	 0.002496
					CHANNELS 3 Zrotation Xrotation Yrotation
					JOINT LeftArm
					{
						OFFSET	 0.000000	 0.164363	 0.000000
						CHANNELS 3 Zrotation Xrotation Yrotation
						JOINT LeftForeArm
						{
							OFFSET	 0.000000	 0.364576	 0.000000
							CHANNELS 3 Zrotation Xrotation Yrotation
							JOINT LeftHand
							{
								OFFSET	 0.000000	 0.360812	 0.000000
								CHANNELS 3 Zrotation Xrotation Yrotation
								JOINT LeftHandIndex1
								{
									OFFSET	 0.000000	 0.086006	 0.000000
									CHANNELS 3 Zrotation Xrotation Yrotation
									JOINT LeftHandIndex2
									{
										OFFSET	 0.000000	 0.047237	 0.000000
										CHANNELS 3 Zrotation Xrotation Yrotation
										JOINT LeftHandIndex3
										{
											OFFSET	-0.004284	 0.038165	 0.000551
											CHANNELS 3 Zrotation Xrotation Yrotation
											End Site
											{
												OFFSET	-0.004284	 0.038165	 0.000551
											}
										}
									}
								}
							}
						}
					}
				}
				JOINT Neck
				{
					OFFSET	 0.000000	 0.176489	 0.000000
					CHANNELS 3 Zrotation Xrotation Yrotation
					JOINT Head
					{
						OFFSET	 0.000000	 0.077941	 0.001747
						CHANNELS 3 Zrotation Xrotation Yrotation
						End Site
						{
							OFFSET	 0.000000	 0.077941	 0.001747
						}
					}
				}
				JOINT RightShoulder
				{
					OFFSET	-0.080363	 0.159706	-0.000306
					CHANNELS 3 Zrotation Xrotation Yrotation
					JOINT RightArm
					{
						OFFSET	 0.000000	 0.164196	 0.000000
						CHANNELS 3 Zrotation Xrotation Yrotation
						JOINT RightForeArm
						{
							OFFSET	 0.000000	 0.365611	 0.000000
							CHANNELS 3 Zrotation Xrotation Yrotation
							JOINT RightHand
							{
								OFFSET	 0.000000	 0.360648	 0.000000
								CHANNELS 3 Zrotation Xrotation Yrotation
								JOINT RightHandIndex1
								{
									OFFSET	 0.000000	 0.069977	 0.000000
									CHANNELS 3 Zrotation Xrotation Yrotation
									JOINT RightHandIndex2
									{
										OFFSET	 0.000000	 0.052305	 0.000000
										CHANNELS 3 Zrotation Xrotation Yrotation
										JOINT RightHandIndex3
										{
											OFFSET	 0.009002	 0.042196	 0.000782
											CHANNELS 3 Zrotation Xrotation Yrotation
											End Site
											{
												OFFSET	 0.009002	 0.042196	 0.000782
											}
										}
									}
								}
							}
						}
					}
				}
			}
		}
	}
}
MOTION
Frames:    9
Frame Time: 0.03333334
 0.436308	 1.273767	 0.406573	 0.648499	-2.347771	-177.252000	 178.755400	 6.819574	-1.520787	 3.579354	-13.224770	 6.001936	 5.621123	 70.111080	-1.736440	 1.292262	 28.425850	-2.713146	 178.681400	 7.938405	 3.144682	-2.203095	-11.310020	 0.818892	 1.123755	 67.020660	-5.931444	-1.288183	 28.361890	 2.710176	-1.011598	 5.214086	-11.643990	 3.425077	-2.432194	-5.849395	-2.208727	 2.769897	 17.382660	-117.459200	-0.779888	 89.958460	 1.884700	-0.195318	-8.121297	 27.156960	-2.127048	 35.219560	-43.424590	 1.552665	-11.851540	-6.580301	 5.266122	 0.000000	 0.000000	 0.000000	 0.000000	 0.000000	 0.000000	 0.000000	 4.795020	 27.116100	 1.713064	-3.670427	-17.095750	 4.650809	 116.287700	-0.440219	-90.569100	-0.365447	 1.025647	 18.352650	-28.254730	 0.647090	-57.041570	-37.313540	-31.834510	 0.029002	 15.208500	 5.323790	 0.000000	 0.000000	 0.000000	 0.000000	 0.000000	 0.000000	 0.000000
 0.436290	 1.274331	 0.406904	 0.664972	-2.437332	-177.242600	 178.794500	 6.823022	-1.515452	 3.515586	-12.997540	 6.009373	 5.630859	 69.873930	-1.726071	 1.292262	 28.425850	-2.713146	 178.687000	 8.018099	 3.154987	-2.190050	-11.244780	 0.789347	 1.030590	 66.872410	-5.843877	-1.288183	 28.361890	 2.710176	-0.995673	 5.142181	-11.602070	 3.416388	-2.217414	-5.835319	-2.167910	 2.427744	 17.313370	-117.554000	-0.808806	 89.945550	 1.610460	-0.138424	-7.920737	 27.675710	-2.164494	 34.979930	-43.222630	 1.071007	-12.028840	-6.580301	 5.266122	 0.000000	 0.000000	 0.000000	 0.000000	 0.000000	 0.000000	 0.000000	 4.861002	 27.323600	 1.658296	-3.669799	-17.266110	 4.652086	 116.437200	-0.481475	-90.554880	-0.041534	 1.169607	 18.215150	-28.981830	 0.662291	-56.842250	-37.181210	-31.766780	 0.065356	 15.208500	 5.323790	 0.000000	 0.000000	 0.000000	 0.000000	 0.000000	 0.000000	 0.000000
 0.436279	 1.274895	 0.407361	 0.680468	-2.550562	-177.231100	 178.803900	 6.973401	-1.502677	 3.518209	-13.006920	 6.037508	 5.665768	 69.752860	-1.764566	 1.292262	 28.425850	-2.713146	 178.690300	 8.128822	 3.165716	-2.177337	-11.181230	 0.751577	 0.919246	 66.718200	-5.736741	-1.288183	 28.361890	 2.710176	-0.981712	 5.085847	-11.540760	 3.400261	-2.043276	-5.812168	-2.122853	 2.139137	 17.216980	-117.673500	-0.845237	 89.929210	 1.295824	-0.038793	-7.648406	 28.326530	-2.211174	 34.682360	-42.975220	 0.482808	-12.179800	-6.580301	 5.266122	 0.000000	 0.000000	 0.000000	 0.000000	 0.000000	 0.000000	 0.000000	 4.944686	 27.585120	 1.588715	-3.670975	-17.461100	 4.650558	 116.625700	-0.533460	-90.536790	 0.331983	 1.357577	 18.047270	-29.899870	 0.681405	-56.597180	-36.962940	-31.605970	 0.045199	 15.208500	 5.323790	 0.000000	 0.000000	 0.000000	 0.000000	 0.000000	 0.000000	 0.000000
 0.436275	 1.275403	 0.407896	 0.694149	-2.674159	-177.218500	 178.810600	 7.140584	-1.486956	 3.522287	-13.021410	 6.068560	 5.707983	 69.638030	-1.811944	 1.292262	 28.425850	-2.713146	 178.692100	 8.259846	 3.176073	-2.167271	-11.130900	 0.709729	 0.802986	 66.574800	-5.622344	-1.288183	 28.361890	 2.710176	-0.970291	 5.049434	-11.467920	 3.378394	-1.914822	-5.783084	-2.077502	 1.919186	 17.105000	-117.804300	-0.885018	 89.911270	 0.968616	 0.100687	-7.328568	 29.046500	-2.262544	 34.362890	-42.721100	-0.151761	-12.306130	-6.580301	 5.266122	 0.000000	 0.000000	 0.000000	 0.000000	 0.000000	 0.000000	 0.000000	 5.036858	 27.871060	 1.511925	-3.673625	-17.660800	 4.646815	 116.831800	-0.590229	-90.516800	 0.719882	 1.584586	 17.867910	-30.920560	 0.702368	-56.336750	-36.677090	-31.378600	-0.027604	 15.208500	 5.323790	 0.000000	 0.000000	 0.000000	 0.000000	 0.000000	 0.000000	 0.000000
 0.436272	 1.275894	 0.408554	 0.707549	-2.816040	-177.204100	 178.815200	 7.338170	-1.467712	 3.529444	-13.046980	 6.104577	 5.758828	 69.522250	-1.870189	 1.292262	 28.425850	-2.713146	 178.693200	 8.421033	 3.186690	-2.159617	-11.092610	 0.661147	 0.675142	 66.431550	-5.493917	-1.288183	 28.361890	 2.710176	-0.960143	 5.027279	-11.379460	 3.349334	-1.809992	-5.746570	-2.028248	 1.739741	 16.970890	-117.954400	-0.930650	 89.890530	 0.604745	 0.295076	-6.935871	 29.884790	-2.321772	 34.003960	-42.452120	-0.879314	-12.432060	-6.580301	 5.266122	 0.000000	 0.000000	 0.000000	 0.000000	 0.000000	 0.000000	 0.000000	 5.143533	 28.199250	 1.422855	-3.677762	-17.879460	 4.640833	 117.068600	-0.655316	-90.493580	 1.147954	 1.877478	 17.664940	-32.113490	 0.726657	-56.047520	-36.302330	-31.079900	-0.158361	 15.208500	 5.323790	 0.000000	 0.000000	 0.000000	 0.000000	 0.000000	 0.000000	 0.000000
 0.436271	 1.276432	 0.409471	 0.722904	-3.000334	-177.185100	 178.817500	 7.605213	-1.441129	 3.543496	-13.097030	 6.152559	 5.827464	 69.391460	-1.950820	 1.292262	 28.425850	-2.713146	 178.694100	 8.646471	 3.199330	-2.155429	-11.071600	 0.597081	 0.516102	 66.270950	-5.330268	-1.288183	 28.361890	 2.710176	-0.949424	 5.020016	-11.258730	 3.304715	-1.710773	-5.695622	-1.965268	 1.580090	 16.789630	-118.150100	-0.990072	 89.863330	 0.145926	 0.596298	-6.385653	 30.988150	-2.399075	 33.547450	-42.135980	-1.837491	-12.591120	-6.580301	 5.266122	 0.000000	 0.000000	 0.000000	 0.000000	 0.000000	 0.000000	 0.000000	 5.284022	 28.627040	 1.305234	-3.684355	-18.153370	 4.631269	 117.377300	-0.740061	-90.462940	 1.681753	 2.312071	 17.401740	-33.690160	 0.758192	-55.685010	-35.758060	-30.657230	-0.391881	 15.208500	 5.323790	 0.000000	 0.000000	 0.000000	 0.000000	 0.000000	 0.000000	 0.000000
 0.436268	 1.276927	 0.410563	 0.738421	-3.204022	-177.164100	 178.816200	 7.913841	-1.410141	 3.565105	-13.174080	 6.206950	 5.905615	 69.266840	-2.045045	 1.292262	 28.425850	-2.713146	 178.695500	 8.913608	 3.212061	-2.157065	-11.079770	 0.525300	 0.348205	 66.118210	-5.153148	-1.288183	 28.361890	 2.710176	-0.939698	 5.031957	-11.119420	 3.248410	-1.624897	-5.636084	-1.895960	 1.466594	 16.581770	-118.367500	-1.055939	 89.832900	-0.340305	 0.984289	-5.727733	 32.208860	-2.483570	 33.054440	-41.824270	-2.924458	-12.780320	-6.580301	 5.266122	 0.000000	 0.000000	 0.000000	 0.000000	 0.000000	 0.000000	 0.000000	 5.441958	 29.102000	 1.172585	-3.692806	-18.447350	 4.619105	 117.720300	-0.833988	-90.428360	 2.236388	 2.859682	 17.107060	-35.444270	 0.792694	-55.301450	-35.100970	-30.169170	-0.725934	 15.208500	 5.323790	 0.000000	 0.000000	 0.000000	 0.000000	 0.000000	 0.000000	 0.000000
 0.436262	 1.277339	 0.411726	 0.753065	-3.407866	-177.143200	 178.811800	 8.235296	-1.378047	 3.592458	-13.271380	 6.262784	 5.985276	 69.158740	-2.143298	 1.292262	 28.425850	-2.713146	 178.697500	 9.197807	 3.223580	-2.164533	-11.117120	 0.452785	 0.187322	 65.986370	-4.979259	-1.288183	 28.361890	 2.710176	-0.931185	 5.059429	-10.975200	 3.185413	-1.551112	-5.573767	-1.826022	 1.399276	 16.367830	-118.585500	-1.121876	 89.802120	-0.795259	 1.419787	-5.023216	 33.406460	-2.565297	 32.573680	-41.545310	-4.045889	-12.992710	-6.580301	 5.266122	 0.000000	 0.000000	 0.000000	 0.000000	 0.000000	 0.000000	 0.000000	 5.602354	 29.577970	 1.037425	-3.702187	-18.734320	 4.605615	 118.064300	-0.927970	-90.393100	 2.745524	 3.469541	 16.804780	-37.178980	 0.825976	-54.936380	-34.405760	-29.679700	-1.133699	 15.208500	 5.323790	 0.000000	 0.000000	 0.000000	 0.000000	 0.000000	 0.000000	 0.000000
 0.436252	 1.277758	 0.413239	 0.770545	-3.658260	-177.117500	 178.803000	 8.646224	-1.337451	 3.633337	-13.416800	 6.332900	 6.083832	 69.044950	-2.267638	 1.292262	 28.425850	-2.713146	 178.701000	 9.566449	 3.236315	-2.180368	-11.196390	 0.363032	-0.001939	 65.846940	-4.769755	-1.288183	 28.361890	 2.710176	-0.921781	 5.109882	-10.792210	 3.100753	-1.465540	-5.494099	-1.739226	 1.361881	 16.097890	-118.854200	-1.202926	 89.763870	-1.297978	 2.006797	-4.101436	 34.815300	-2.660023	 31.997340	-41.234990	-5.477736	-13.289580	-6.580301	 5.266122	 0.000000	 0.000000	 0.000000	 0.000000	 0.000000	 0.000000	 0.000000	 5.802820	 30.163980	 0.867886	-3.714741	-19.079720	 4.587640	 118.488200	-1.043442	-90.348900	 3.295898	 4.291077	 16.419180	-39.245690	 0.864790	-54.512680	-33.521810	-29.096620	-1.729309	 15.208500	 5.323790	 0.000000	 0.000000	 0.000000	 0.000000	 0.000000	 0.000000	 0.000000
